<mxfile host="app.diagrams.net" modified="2020-08-07T10:46:48.982Z" agent="5.0 (Macintosh; Intel Mac OS X 10_15_6) AppleWebKit/605.1.15 (KHTML, like Gecko) Version/13.1.2 Safari/605.1.15" etag="yXY7z6c7lqiiy_Bx_oEZ" version="13.6.0" type="github">
  <diagram id="WQyAVNYxkE-gLwhtTMU6" name="Page-1">
    <mxGraphModel dx="2066" dy="1114" grid="1" gridSize="10" guides="1" tooltips="1" connect="1" arrows="1" fold="1" page="1" pageScale="1" pageWidth="850" pageHeight="1100" math="0" shadow="0">
      <root>
        <mxCell id="0" />
        <mxCell id="1" parent="0" />
        <mxCell id="3hBh9McwlYDE2mMv2jeG-2" value="&lt;font style=&quot;font-size: 26px&quot;&gt;opengp-distro&amp;nbsp;&lt;/font&gt;" style="rounded=1;whiteSpace=wrap;html=1;fillColor=#fff2cc;strokeColor=#d6b656;verticalAlign=bottom;shadow=1;" parent="1" vertex="1">
          <mxGeometry x="337.5" y="340" width="352.5" height="240" as="geometry" />
        </mxCell>
        <mxCell id="3hBh9McwlYDE2mMv2jeG-12" style="edgeStyle=orthogonalEdgeStyle;rounded=0;orthogonalLoop=1;jettySize=auto;html=1;exitX=1;exitY=0.5;exitDx=0;exitDy=0;entryX=0;entryY=0.5;entryDx=0;entryDy=0;fontSize=22;" parent="1" source="3hBh9McwlYDE2mMv2jeG-3" target="3hBh9McwlYDE2mMv2jeG-10" edge="1">
          <mxGeometry relative="1" as="geometry" />
        </mxCell>
        <mxCell id="3hBh9McwlYDE2mMv2jeG-3" value="UI" style="rounded=0;whiteSpace=wrap;html=1;fontSize=22;fillColor=#e1d5e7;strokeColor=#9673a6;" parent="1" vertex="1">
          <mxGeometry x="357.5" y="410" width="40" height="120" as="geometry" />
        </mxCell>
        <mxCell id="3hBh9McwlYDE2mMv2jeG-11" style="edgeStyle=orthogonalEdgeStyle;rounded=0;orthogonalLoop=1;jettySize=auto;html=1;entryX=0.5;entryY=0;entryDx=0;entryDy=0;fontSize=22;" parent="1" source="3hBh9McwlYDE2mMv2jeG-4" target="3hBh9McwlYDE2mMv2jeG-10" edge="1">
          <mxGeometry relative="1" as="geometry" />
        </mxCell>
        <mxCell id="S6KLQXF6SnF0XSRPlEps-13" value="" style="edgeStyle=orthogonalEdgeStyle;rounded=0;orthogonalLoop=1;jettySize=auto;html=1;" parent="1" source="3hBh9McwlYDE2mMv2jeG-4" target="3hBh9McwlYDE2mMv2jeG-10" edge="1">
          <mxGeometry relative="1" as="geometry" />
        </mxCell>
        <mxCell id="3hBh9McwlYDE2mMv2jeG-4" value="&lt;font style=&quot;font-size: 19px&quot;&gt;openmrs-module-gpconnect&lt;/font&gt;" style="rounded=0;whiteSpace=wrap;html=1;fontSize=22;fillColor=#d5e8d4;strokeColor=#82b366;" parent="1" vertex="1">
          <mxGeometry x="360" y="360" width="310" height="40" as="geometry" />
        </mxCell>
        <mxCell id="3hBh9McwlYDE2mMv2jeG-10" value="Data" style="shape=internalStorage;whiteSpace=wrap;html=1;backgroundOutline=1;shadow=1;fontSize=22;verticalAlign=bottom;align=right;fillColor=#e1d5e7;strokeColor=#9673a6;" parent="1" vertex="1">
          <mxGeometry x="478.25" y="440" width="72.5" height="60" as="geometry" />
        </mxCell>
        <mxCell id="3hBh9McwlYDE2mMv2jeG-13" value="&lt;font style=&quot;font-size: 18px&quot;&gt;This is what we are building in the first milestone&lt;/font&gt;" style="text;html=1;strokeColor=none;fillColor=none;align=center;verticalAlign=middle;whiteSpace=wrap;rounded=0;shadow=1;fontSize=22;rotation=-3;fontStyle=2" parent="1" vertex="1">
          <mxGeometry x="200" y="253" width="300.48" height="50.67" as="geometry" />
        </mxCell>
        <mxCell id="3hBh9McwlYDE2mMv2jeG-16" value="" style="curved=1;endArrow=classic;html=1;fontSize=22;exitX=0.5;exitY=1;exitDx=0;exitDy=0;entryX=0.25;entryY=0;entryDx=0;entryDy=0;dashed=1;endFill=1;" parent="1" source="3hBh9McwlYDE2mMv2jeG-13" target="3hBh9McwlYDE2mMv2jeG-4" edge="1">
          <mxGeometry width="50" height="50" relative="1" as="geometry">
            <mxPoint x="400" y="420" as="sourcePoint" />
            <mxPoint x="450" y="370" as="targetPoint" />
            <Array as="points">
              <mxPoint x="342" y="320" />
              <mxPoint x="390" y="310" />
              <mxPoint x="430" y="310" />
            </Array>
          </mxGeometry>
        </mxCell>
        <mxCell id="3hBh9McwlYDE2mMv2jeG-64" value="&lt;span style=&quot;font-size: 18px&quot;&gt;Part of &quot;vanilla&quot; OpenMRS&lt;br&gt;&lt;/span&gt;" style="text;html=1;strokeColor=none;fillColor=none;align=center;verticalAlign=middle;whiteSpace=wrap;rounded=0;shadow=1;fontSize=22;rotation=-10;fontStyle=2" parent="1" vertex="1">
          <mxGeometry x="416" y="630" width="220" height="50.67" as="geometry" />
        </mxCell>
        <mxCell id="3hBh9McwlYDE2mMv2jeG-65" value="" style="curved=1;endArrow=none;html=1;dashed=1;fontSize=16;exitX=0.25;exitY=1;exitDx=0;exitDy=0;startArrow=classic;startFill=1;endFill=0;" parent="1" source="3hBh9McwlYDE2mMv2jeG-3" target="3hBh9McwlYDE2mMv2jeG-64" edge="1">
          <mxGeometry width="50" height="50" relative="1" as="geometry">
            <mxPoint x="420" y="470" as="sourcePoint" />
            <mxPoint x="470" y="420" as="targetPoint" />
            <Array as="points">
              <mxPoint x="370" y="580" />
              <mxPoint x="440" y="640" />
            </Array>
          </mxGeometry>
        </mxCell>
        <mxCell id="3hBh9McwlYDE2mMv2jeG-66" value="" style="curved=1;endArrow=none;html=1;dashed=1;fontSize=16;exitX=1;exitY=0.75;exitDx=0;exitDy=0;startArrow=classic;startFill=1;endFill=0;entryX=0.75;entryY=0;entryDx=0;entryDy=0;" parent="1" source="3hBh9McwlYDE2mMv2jeG-10" target="3hBh9McwlYDE2mMv2jeG-64" edge="1">
          <mxGeometry width="50" height="50" relative="1" as="geometry">
            <mxPoint x="557.56" y="500" as="sourcePoint" />
            <mxPoint x="725.1781591082024" y="624.2150949612771" as="targetPoint" />
            <Array as="points">
              <mxPoint x="590" y="520" />
              <mxPoint x="640" y="530" />
              <mxPoint x="660" y="590" />
            </Array>
          </mxGeometry>
        </mxCell>
        <mxCell id="3hBh9McwlYDE2mMv2jeG-69" value="&lt;span style=&quot;font-style: normal&quot;&gt;&lt;font style=&quot;font-size: 14px&quot;&gt;distribution&lt;/font&gt;&lt;/span&gt;" style="text;html=1;strokeColor=none;fillColor=none;align=center;verticalAlign=middle;whiteSpace=wrap;rounded=0;shadow=1;fontSize=16;rotation=0;fontStyle=2" parent="1" vertex="1">
          <mxGeometry x="598.75" y="452.95000000000005" width="81.25" height="25.34" as="geometry" />
        </mxCell>
        <UserObject label="" link="https://openmrs.org/" id="3hBh9McwlYDE2mMv2jeG-70">
          <mxCell style="shape=image;verticalLabelPosition=bottom;labelBackgroundColor=#ffffff;verticalAlign=top;aspect=fixed;imageAspect=0;image=https://www.pikpng.com/pngl/b/382-3826503_dev-1-quiz-openmrs-logo-transparent-clipart.png;" parent="1" vertex="1">
            <mxGeometry x="561.75" y="428" width="120.92" height="30" as="geometry" />
          </mxCell>
        </UserObject>
        <mxCell id="S6KLQXF6SnF0XSRPlEps-2" value="&lt;font style=&quot;font-size: 17px&quot;&gt;gpconnect-provider-testing&lt;/font&gt;" style="rounded=0;whiteSpace=wrap;html=1;fontSize=22;fillColor=#dae8fc;strokeColor=#6c8ebf;" parent="1" vertex="1">
          <mxGeometry x="561.75" y="243" width="258.25" height="40" as="geometry" />
        </mxCell>
        <UserObject label="" link="https://digital.nhs.uk/services/gp-connect" id="S6KLQXF6SnF0XSRPlEps-3">
          <mxCell style="shape=image;verticalLabelPosition=bottom;labelBackgroundColor=#ffffff;verticalAlign=top;aspect=fixed;imageAspect=0;image=https://upload.wikimedia.org/wikipedia/commons/thumb/f/fa/NHS-Logo.svg/1200px-NHS-Logo.svg.png;" parent="1" vertex="1">
            <mxGeometry x="790" y="230.79" width="55" height="22.21" as="geometry" />
          </mxCell>
        </UserObject>
        <mxCell id="S6KLQXF6SnF0XSRPlEps-16" value="" style="verticalLabelPosition=bottom;html=1;verticalAlign=top;align=center;strokeColor=none;shape=mxgraph.azure.git_repository;fillColor=#1189F2;" parent="1" vertex="1">
          <mxGeometry x="797" y="256" width="20" height="20" as="geometry" />
        </mxCell>
        <mxCell id="S6KLQXF6SnF0XSRPlEps-17" value="" style="verticalLabelPosition=bottom;html=1;verticalAlign=top;align=center;strokeColor=none;shape=mxgraph.azure.git_repository;fillColor=#1189F2;" parent="1" vertex="1">
          <mxGeometry x="640" y="370" width="20" height="20" as="geometry" />
        </mxCell>
        <mxCell id="S6KLQXF6SnF0XSRPlEps-18" value="" style="verticalLabelPosition=bottom;html=1;verticalAlign=top;align=center;strokeColor=none;shape=mxgraph.azure.git_repository;fillColor=#1189F2;" parent="1" vertex="1">
          <mxGeometry x="599" y="552" width="20" height="20" as="geometry" />
        </mxCell>
        <mxCell id="S6KLQXF6SnF0XSRPlEps-6" style="edgeStyle=orthogonalEdgeStyle;rounded=0;orthogonalLoop=1;jettySize=auto;html=1;entryX=0.5;entryY=0;entryDx=0;entryDy=0;fontSize=22;exitX=0;exitY=0.5;exitDx=0;exitDy=0;" parent="1" source="S6KLQXF6SnF0XSRPlEps-2" target="3hBh9McwlYDE2mMv2jeG-4" edge="1">
          <mxGeometry relative="1" as="geometry">
            <mxPoint x="677" y="243" as="sourcePoint" />
            <mxPoint x="583.75" y="364" as="targetPoint" />
          </mxGeometry>
        </mxCell>
      </root>
    </mxGraphModel>
  </diagram>
</mxfile>
